<svg xmlns="http://www.w3.org/2000/svg"  height="400"
        viewBox="0 0 400 400"
        width="400">
<path fill="#79da88"
      d="M104.931 256.144C97.4477 249.118 92.5427 240.046 92.2033 229.644C91.8469 218.718 95.4378 209.662 102.899 201.73C107.459 196.883 112.388 192.331 117.087 187.615L149.9 154.778Q183.078 121.254 216.68 88.1547C226.869 97.7412 236.588 107.921 246.49 117.813L304.071 175.413L332.974 204.332C338.337 209.65 344.504 214.764 349.075 220.782C352.644 225.48 354.558 230.749 354.766 236.65C355.027 244.04 352.444 250.984 347.343 256.365C340.735 263.335 332.388 264.98 323.175 265.162C314.753 265.328 306.113 265.368 297.702 264.981C298.11 276.422 297.768 287.958 297.778 299.411C297.785 307.987 298.727 320.957 296.953 328.961Q296.745 329.936 296.471 330.894Q296.197 331.852 295.859 332.79Q295.521 333.727 295.12 334.639Q294.718 335.552 294.256 336.434Q293.794 337.317 293.273 338.167Q292.752 339.016 292.174 339.828Q291.596 340.641 290.965 341.412Q290.333 342.183 289.651 342.909C282.325 350.721 273.304 352.38 263.104 352.648Q260.543 352.719 257.982 352.755C257.737 342.959 257.511 333.027 257.901 323.235C261.28 323.231 264.728 323.088 268.097 323.331C265.622 320.212 259.32 313.253 258.318 309.653C257.197 305.625 257.773 294.07 257.772 289.428Q257.736 273.113 257.979 256.8C258.123 246.307 258.381 235.752 257.914 225.265L283.535 225.25C288.247 225.23 293.237 224.868 297.915 225.312C292.144 220.828 286.995 214.947 281.917 209.687Q280.723 208.474 279.568 207.223C277.93 205.807 276.409 204.151 274.864 202.629L232.84 160.494Q227.997 155.634 223.096 150.831C220.996 148.773 218.639 146.727 216.869 144.378C210.46 151.112 203.571 157.51 197 164.1L144.704 216.405L117.74 243.399C113.9 247.255 108.979 252.931 104.931 256.144Z"/>
<path fill="#5dd26f"
      d="M198.289 259.029C211.609 259.238 224.988 259.474 238.301 258.97C238.224 267.986 239.186 305.377 237.171 310.481C235.433 314.882 230.537 319.718 227.551 323.435C231.057 323.128 234.667 323.261 238.187 323.258C238.426 333.005 237.734 342.917 238.449 352.633C237.584 353.243 203.712 352.466 198.486 352.968L198.463 340.313C198.467 338.788 198.499 337.273 198.991 335.812C200.377 331.701 205.512 326.001 208.598 322.929C205.174 323.079 201.709 322.987 198.28 323.011C197.993 301.69 198.743 280.357 198.289 259.029Z"/>
<path fill="#4dad5c"
      d="M138.167 306.524C143.286 306.828 148.48 306.693 153.607 306.698Q165.828 306.804 178.044 306.465Q177.94 314.863 178.039 323.261C174.594 323.291 171.024 323.437 167.605 323.019Q168.128 323.497 168.621 324.005C172.359 327.85 176.922 332.948 177.899 338.344C178.188 339.938 178.06 341.694 178.039 343.312L178.092 352.76C169.354 352.949 160.588 352.82 151.847 352.804C147.245 352.796 142.61 352.674 138.016 352.977Q138.126 336.788 138.04 320.598C138.028 317.293 137.475 309.116 138.167 306.524Z"/>
        </svg>